# xmcd CD database file
#
# Track frame offsets:
#	150
#	19147
#	44600
#	77622
#	120767
#	147867
#	186080
#	211642
#	228410
#
# Disc length: 3371 seconds
#
# Revision: 0
# Processed by: cddbd v1.5.1PL0 Copyright (c) Steve Scherf et al.
# Submitted via: CDex 1.51
#
DISCID=6a0d2909
DTITLE=ウォン・ウィンツァン - Behind The Forest Vol.2
DYEAR=1900
DGENRE=Pop
TTITLE0=KとAの婚礼
TTITLE1=ひとりごと
TTITLE2=螺旋形のエチュード
TTITLE3=雲と影絵
TTITLE4=海と空の交わるあたり
TTITLE5=赤い香りのゆくへ
TTITLE6=雪の粒子学
TTITLE7=銀の錯覚
TTITLE8=君はゆっくりと透明な言葉をつむぐ
EXTD=
EXTT0=
EXTT1=
EXTT2=
EXTT3=
EXTT4=
EXTT5=
EXTT6=
EXTT7=
EXTT8=
PLAYORDER=
